<svg width="24" height="24" viewBox="0 0 24 24" fill="none" xmlns="http://www.w3.org/2000/svg">
<path d="M22.0575 6.94515C21.938 6.50118 21.7039 6.09638 21.3788 5.77127C21.0537 5.44616 20.6489 5.21215 20.205 5.09265C18.57 4.65015 12 4.65015 12 4.65015C12 4.65015 5.42995 4.65015 3.79495 5.09265C3.35098 5.21215 2.94619 5.44616 2.62108 5.77127C2.29597 6.09638 2.06196 6.50118 1.94245 6.94515C1.63716 8.6126 1.48901 10.305 1.49995 12.0001C1.48901 13.6953 1.63716 15.3877 1.94245 17.0551C2.06196 17.4991 2.29597 17.9039 2.62108 18.229C2.94619 18.5541 3.35098 18.7881 3.79495 18.9076C5.42995 19.3501 12 19.3501 12 19.3501C12 19.3501 18.57 19.3501 20.205 18.9076C20.6489 18.7881 21.0537 18.5541 21.3788 18.229C21.7039 17.9039 21.938 17.4991 22.0575 17.0551C22.3627 15.3877 22.5109 13.6953 22.5 12.0001C22.5109 10.305 22.3627 8.6126 22.0575 6.94515ZM9.89995 15.1501V8.85015L15.3525 12.0001L9.89995 15.1501Z" fill="white"/>
</svg>
